<svg width="44" height="47" viewBox="0 0 44 47" fill="none" xmlns="http://www.w3.org/2000/svg">
<g clip-path="url(#clip0_209_12)">
<path d="M10.3333 17.3331H1V46.6664H10.3333V17.3331Z" fill="#9CA3AF"/>
<path d="M5.66667 11.3333C8.66667 11.3333 11.3333 8.66667 11.3333 5.66667C11.3333 2.66667 8.66667 0 5.66667 0C2.33333 0 0 2.66667 0 5.66667C0 8.66667 2.33333 11.3333 5.66667 11.3333Z" fill="#9CA3AF"/>
<path d="M23.6666 32.3332C23.6666 27.9998 25.6666 25.3332 29.3333 25.3332C32.6666 25.3332 34.3333 27.6665 34.3333 32.3332C34.3333 40.3332 34.3333 46.9998 34.3333 46.9998H43.6666C43.6666 46.9998 43.6666 36.9998 43.6666 28.9998C43.6666 20.6665 39 16.9998 32.6666 16.9998C26.3333 16.9998 23.3333 21.9998 23.3333 21.9998V17.9998H14.6666V47.3332H23.6666C23.6666 46.9998 23.6666 36.9998 23.6666 32.3332Z" fill="#9CA3AF"/>
</g>
<defs>
<clipPath id="clip0_209_12">
<rect width="44" height="47" fill="white"/>
</clipPath>
</defs>
</svg>
