<svg width="60" height="60" viewBox="0 0 60 60" fill="none" xmlns="http://www.w3.org/2000/svg">
<path d="M30 0C13.5 0 0 13.5 0 30C0 46.5 13.5 60 30 60C46.5 60 60 46.5 60 30C60 13.5 46.5 0 30 0ZM44.7 18.3L39.6 42.9C39.3 44.7 38.1 45 36.9 44.1L29.1 38.1C27.3 39.9 25.5 41.4 25.2 42C24.6 42.3 24.3 42.9 23.7 42.9C22.8 42.9 22.8 42.3 22.5 41.7L19.8 32.7L11.7 30C9.9 29.4 9.9 28.2 12 27.3L42.6 15.6C43.8 15.3 45.3 15.9 44.7 18.3ZM37.5 21L20.4 31.8L23.1 40.8L23.7 34.8L38.4 21.6C39.3 20.7 38.7 20.7 37.5 21Z" fill="#9CA3AF"/>
</svg>
