<svg width="60" height="60" viewBox="0 0 60 60" fill="none" xmlns="http://www.w3.org/2000/svg">
<path fill-rule="evenodd" clip-rule="evenodd" d="M30 60C13.4315 60 0 46.5685 0 30C0 13.4315 13.4315 0 30 0C46.5685 0 60 13.4315 60 30C60 46.5685 46.5685 60 30 60ZM30.9889 46.6906C40.8244 46.6866 48.8237 38.6854 48.8276 28.8519C48.8296 24.0854 46.9757 19.6035 43.6077 16.2318C40.2397 12.8599 35.7607 11.0021 30.9886 11C21.156 11 13.1535 19.0021 13.1495 28.8377C13.1482 31.9819 13.9696 35.0506 15.5307 37.756L13 47L22.4566 44.5194C25.0623 45.9405 27.9959 46.6896 30.9815 46.6906H30.9889Z" fill="#9CA3AF"/>
<path fill-rule="evenodd" clip-rule="evenodd" d="M22.8949 41.2899L17.2831 42.762L18.781 37.2905L18.4285 36.7295C16.9442 34.3689 16.1604 31.6405 16.1615 28.8389C16.1648 20.6639 22.8161 14.013 30.9947 14.013C34.955 14.0144 38.6778 15.5586 41.4771 18.3613C44.2765 21.1639 45.8172 24.889 45.8158 28.8509C45.8124 37.0265 39.1611 43.678 30.9889 43.678H30.9829C28.3223 43.6769 25.7128 42.9621 23.4363 41.6113L22.8949 41.2899ZM39.976 33.0939C39.8646 32.908 39.5675 32.7965 39.1217 32.5732C38.676 32.3501 36.4846 31.272 36.076 31.1231C35.6675 30.9744 35.3701 30.9001 35.0731 31.3461C34.776 31.7924 33.9217 32.7965 33.6617 33.0939C33.4017 33.3914 33.1416 33.4286 32.6961 33.2055C32.2504 32.9824 30.8141 32.5118 29.1116 30.9931C27.7865 29.8111 26.8919 28.3516 26.6319 27.9054C26.3719 27.4591 26.6043 27.2179 26.8274 26.9956C27.0279 26.7959 27.2731 26.4749 27.496 26.2148C27.7189 25.9545 27.7931 25.7685 27.9416 25.4713C28.0903 25.1736 28.016 24.9134 27.9045 24.6903C27.7931 24.4671 26.9016 22.2731 26.5302 21.3806C26.1684 20.5115 25.801 20.6293 25.5274 20.6155C25.2676 20.6025 24.9703 20.5998 24.6731 20.5998C24.376 20.5998 23.893 20.7113 23.4845 21.1575C23.0759 21.6038 21.9244 22.6821 21.9244 24.876C21.9244 27.07 23.5216 29.1895 23.7445 29.487C23.9674 29.7845 26.8875 34.2866 31.3589 36.2174C32.4224 36.6766 33.2525 36.9509 33.9 37.1563C34.9678 37.4956 35.9395 37.4478 36.7074 37.3329C37.5639 37.205 39.3445 36.2548 39.7161 35.2136C40.0874 34.1723 40.0874 33.2798 39.976 33.0939Z" fill="#9CA3AF"/>
</svg>
